<?xml version="1.0" encoding="UTF-8"?>
<!DOCTYPE svg PUBLIC "-//W3C//DTD SVG 1.1//EN" "http://www.w3.org/Graphics/SVG/1.1/DTD/svg11.dtd">
<!-- Creator: CorelDRAW -->
<svg xmlns="http://www.w3.org/2000/svg" xml:space="preserve" width="18.6266mm" height="4.064mm" version="1.1" style="shape-rendering:geometricPrecision; text-rendering:geometricPrecision; image-rendering:optimizeQuality; fill-rule:evenodd; clip-rule:evenodd"
viewBox="0 0 1862.66 406.4"
 xmlns:xlink="http://www.w3.org/1999/xlink"
 xmlns:xodm="http://www.corel.com/coreldraw/odm/2003">
 <defs>
  <style type="text/css">
   <![CDATA[
    .fil0 {fill:white}
   ]]>
  </style>
 </defs>
 <g id="Layer_x0020_1">
  <metadata id="CorelCorpID_0Corel-Layer"/>
  <path class="fil0" d="M1422.28 277.79l14.9 0 1.06 -98.87 68.29 98.87 19.89 0c2.25,-14.31 2.62,-110.37 -0.58,-121.99l-14.03 0 -1.37 98.89c-16.56,-21.76 -59.54,-89.87 -68.55,-98.89l-19.04 0c-3.19,11.64 -2.81,107.65 -0.57,121.99z"/>
  <path class="fil0" d="M1321.94 170.73c65.61,-16.7 77.97,78.18 25.91,92.54 -63.87,17.62 -82.61,-78.11 -25.91,-92.54zm0.28 -16.38c-84.53,16.89 -57.05,141.29 24.81,124.9 80.48,-16.1 58.86,-141.62 -24.81,-124.9z"/>
  <path class="fil0" d="M790.42 171.02c59.68,-8.86 64.02,38.61 15.8,38.61l-7.04 0.17 -8.76 -1.04 0 -37.74zm-16.36 106.49l15.19 0.34 1.29 -53c27.35,-1.85 13.38,-4.11 49.6,52.66l19.03 0.19c-5.32,-17.59 -26.8,-37.4 -31.6,-55.19 12.51,-6.67 19.16,-6.66 24.9,-19.24 5.3,-11.6 3.88,-26.27 -3.57,-35.18 -13.11,-15.7 -47.96,-13.48 -74,-12l-0.84 121.42z"/>
  <path class="fil0" d="M924.59 177.61l21.46 55.27 -44.87 -0.25 23.41 -55.02zm-59.57 100.18l17.54 0 12.29 -29.89 58.8 -0.18 11.93 30.22 17.91 -0.15 -50.7 -121.69c-23.3,-0.56 -16.06,3.83 -41.76,59.98 -6.78,14.8 -23.27,47.93 -26.01,61.71z"/>
  <polygon class="fil0" points="1150.57,277.51 1166.03,277.85 1167.31,222.8 1230.38,221.84 1230.51,277.51 1245.59,277.84 1246.83,155.82 1230.38,156.66 1230.38,206.42 1167.2,206.3 1166.87,155.79 1151.42,155.8 "/>
  <polygon class="fil0" points="569.89,277.79 650.6,277.75 651.64,262.59 586.24,262.26 586.41,223.09 644.16,222.91 644.16,208.17 587.12,207.53 586.21,171.32 648.55,171.09 648.1,156.36 571.02,155.76 "/>
  <path class="fil0" d="M1639.33 262.29l-64.06 0 0.26 -39.2 57.66 0 0.01 -15.51 -57.65 -0.17 -0.24 -34.65c11.97,-3.63 47.39,-1.44 61.98,-1.44l-0.15 -14.33 -77.08 0 -0.28 119.91 79.55 -0.01 0 -14.6z"/>
  <path class="fil0" d="M1064.82 170.14l15.21 0c16.61,0 32.38,2.32 32.37,19.69 0,16.99 -12.83,19.8 -30.05,19.8l-17.53 0 0 -39.49zm-16.38 107.64c22.45,0 16.37,7.81 16.37,-52.06 16.07,-5.31 53.95,6.18 63.41,-22.99 17.53,-54.08 -49.2,-46.91 -79.79,-46.91l0.01 121.96z"/>
  <polygon class="fil0" points="660.88,171.3 700.61,171.32 700.72,277.79 716.13,277.64 717.12,171.31 756.49,171.06 756.03,156.07 662.29,155.79 "/>
  <path class="fil0" d="M159.73 149.96c3.76,18.92 15.97,31.97 31.04,39.78 24.85,12.87 34.95,4.95 57.3,0.3 -4.79,-19.53 -16.7,-32.28 -31.99,-39.74 -23.53,-11.47 -33.38,-5.95 -56.35,-0.34z"/>
  <path class="fil0" d="M333.49 190.04c20.91,5.24 33.97,11.06 56.4,0.02 16.46,-8.11 25.42,-19.43 31.95,-37.76 -15.56,-15.58 -74.04,-14.33 -88.35,37.74z"/>
  <path class="fil0" d="M345.49 337.18c5.97,-21.17 12.34,-31.41 1.38,-55.43 -7.12,-15.62 -18.98,-27.66 -36.78,-32.48 -25.55,33.47 4.78,82.38 35.4,87.91z"/>
  <path class="fil0" d="M237.54 336.6c31.75,-5.38 51.59,-42.15 35.11,-88.06 -43.24,13.83 -52.58,64.03 -35.11,88.06z"/>
  <path class="fil0" d="M481.22 277.79l70.81 -0.09 1.02 -14.82 -56.03 -0.65 -0.11 -106.43 -15.11 0c-3.2,11.62 -2.83,107.68 -0.58,121.99z"/>
  <path class="fil0" d="M306.87 162.24c18.41,-4.58 31.43,-16.71 38.56,-30.89 8.42,-16.78 10.46,-39 -0.24,-55.26 -35.74,14.87 -52.54,40.22 -38.32,86.15z"/>
  <path class="fil0" d="M274.69 161.66c6.93,-18.87 8.75,-37.03 -1.88,-56.23 -8.68,-15.67 -18.32,-22.42 -37.02,-29.77 -16.04,43.45 7.26,81.68 38.9,86z"/>
  <path class="fil0" d="M335.69 224.85c4.79,30.23 52.99,56.04 85.57,33.94 -7.63,-10.86 -9.14,-23.75 -30.72,-34.82 -16.81,-8.63 -39.34,-9 -54.85,0.88z"/>
  <path class="fil0" d="M160.61 260.24c41.34,15.36 78.04,-3 85.86,-35.39 -21.83,-15.4 -70.99,-8.86 -85.86,35.39z"/>
  <path class="fil0" d="M1639.33 262.29l0 14.6 -79.55 0.01 0.28 -119.91 77.08 0c-4.33,-2.65 0.26,-2.55 -16.49,-2.38 -16.69,0.16 -50.06,-1.42 -62.06,1.19l-1.15 122.3c13.01,2.37 72.31,2.9 83.08,-0.59 3.71,-17.11 -0.19,-13.64 -1.19,-15.22z"/>
 </g>
</svg>
